<svg width="30" height="32" viewBox="0 0 30 32" fill="none" xmlns="http://www.w3.org/2000/svg">
<g filter="url(#filter0_d)">
<path d="M15 23.3649C19.9706 23.3649 24 19.1636 24 13.9811C24 8.79848 19.9706 4.59717 15 4.59717C10.0294 4.59717 6 8.79848 6 13.9811C6 19.1636 10.0294 23.3649 15 23.3649Z" fill="white"/>
</g>
<path opacity="0.544922" d="M15 23.3649C19.9706 23.3649 24 19.1636 24 13.9811C24 8.79848 19.9706 4.59717 15 4.59717C10.0294 4.59717 6 8.79848 6 13.9811C6 19.1636 10.0294 23.3649 15 23.3649Z" fill="#1C1D21"/>
<path d="M15 19.1944C17.7614 19.1944 20 16.8603 20 13.9811C20 11.1019 17.7614 8.76782 15 8.76782C12.2386 8.76782 10 11.1019 10 13.9811C10 16.8603 12.2386 19.1944 15 19.1944Z" fill="#1C1D21"/>
<defs>
<filter id="filter0_d" x="0" y="0.597168" width="30" height="30.7678" filterUnits="userSpaceOnUse" color-interpolation-filters="sRGB">
<feFlood flood-opacity="0" result="BackgroundImageFix"/>
<feColorMatrix in="SourceAlpha" type="matrix" values="0 0 0 0 0 0 0 0 0 0 0 0 0 0 0 0 0 0 127 0"/>
<feOffset dy="2"/>
<feGaussianBlur stdDeviation="3"/>
<feColorMatrix type="matrix" values="0 0 0 0 0 0 0 0 0 0 0 0 0 0 0 0 0 0 0.127123 0"/>
<feBlend mode="normal" in2="BackgroundImageFix" result="effect1_dropShadow"/>
<feBlend mode="normal" in="SourceGraphic" in2="effect1_dropShadow" result="shape"/>
</filter>
</defs>
</svg>
